<?xml version="1.0" encoding="iso-8859-1"?>
<!-- Uploaded to: SVG Repo, www.svgrepo.com, Generator: SVG Repo Mixer Tools -->
<svg height="800px" width="800px" version="1.1" id="Layer_1" xmlns="http://www.w3.org/2000/svg" xmlns:xlink="http://www.w3.org/1999/xlink" 
	 viewBox="0 0 512 512" xml:space="preserve">
<polygon style="fill:#424242;" points="511.491,107.18 499.516,78.278 465.017,92.573 459.331,78.85 430.429,90.825 
	436.115,104.548 286.528,166.527 298.503,195.428 448.09,133.45 453.775,147.172 482.677,135.198 476.991,121.475 "/>
<path style="fill:#C2C2C2;" d="M320.989,235.295v-27.553c0-37.929-30.748-68.676-68.676-68.676h-64.098
	c-37.929,0-68.676,30.748-68.676,68.676v27.553H320.989z"/>
<path style="fill:#424242;" d="M438.479,303.115H73.521c-27.074,0-49.1,22.027-49.1,49.1c0,19.391,11.459,37.009,29.192,44.883
	l77.129,31.24c8.234,3.573,16.972,5.384,25.974,5.384h198.57c9.001,0,17.737-1.811,25.972-5.384l76.652-31.038l0.478-0.202
	c17.733-7.874,29.192-25.492,29.192-44.883C487.579,325.141,465.553,303.115,438.479,303.115z"/>
<g>
	<path style="fill:#C2C2C2;" d="M438.479,380.46c-15.575,0-28.244-12.67-28.244-28.245s12.669-28.244,28.244-28.244
		s28.244,12.669,28.244,28.244S454.052,380.46,438.479,380.46z"/>
	<path style="fill:#C2C2C2;" d="M73.521,380.46c-15.575,0-28.244-12.67-28.244-28.245s12.669-28.244,28.244-28.244
		s28.244,12.669,28.244,28.244S89.096,380.46,73.521,380.46z"/>
	<path style="fill:#C2C2C2;" d="M156.713,412.866c-24.508,0-44.447-19.939-44.447-44.447c0-24.508,19.939-44.447,44.447-44.447
		s44.447,19.939,44.447,44.447C201.161,392.927,181.222,412.866,156.713,412.866z"/>
	<path style="fill:#C2C2C2;" d="M256.036,412.866c-24.508,0-44.447-19.939-44.447-44.447c0-24.508,19.939-44.447,44.447-44.447
		s44.447,19.939,44.447,44.447C300.483,392.927,280.544,412.866,256.036,412.866z"/>
	<path style="fill:#C2C2C2;" d="M355.36,412.866c-24.508,0-44.447-19.939-44.447-44.447c0-24.508,19.939-44.447,44.447-44.447
		s44.447,19.939,44.447,44.447C399.807,392.927,379.868,412.866,355.36,412.866z"/>
</g>
<g>
	<path style="fill:#EAEAEA;" d="M355.36,323.971c-24.508,0-44.447,19.939-44.447,44.447h88.894
		C399.807,343.91,379.868,323.971,355.36,323.971z"/>
	<path style="fill:#EAEAEA;" d="M256.036,323.971c-24.508,0-44.447,19.939-44.447,44.447h88.894
		C300.484,343.91,280.544,323.971,256.036,323.971z"/>
	<path style="fill:#EAEAEA;" d="M156.713,323.971c-24.508,0-44.447,19.939-44.447,44.447h88.894
		C201.161,343.91,181.222,323.971,156.713,323.971z"/>
	<path style="fill:#EAEAEA;" d="M438.479,323.971c-15.575,0-28.244,12.669-28.244,28.244h56.488
		C466.723,336.64,454.052,323.971,438.479,323.971z"/>
	<path style="fill:#EAEAEA;" d="M73.521,323.971c-15.575,0-28.244,12.669-28.244,28.244h56.488
		C101.765,336.64,89.096,323.971,73.521,323.971z"/>
</g>
<polygon style="fill:#048F46;" points="365.114,208.384 75.413,208.384 75.413,261.91 75.413,278.37 421.165,278.37 421.165,261.91 
	"/>
<polygon style="fill:#3DDB86;" points="365.114,208.384 75.413,208.384 75.413,235.295 393.294,235.295 "/>
<path style="fill:#EAEAEA;" d="M311.963,173.724c-11.83-20.698-34.102-34.659-59.651-34.659h-64.098
	c-25.548,0-47.821,13.961-59.651,34.659H311.963z"/>
<path style="fill:#424242;" d="M438.479,261.91H73.52c-29.073,0-56.556,14.187-73.52,37.949l25.464,18.176
	c11.102-15.554,29.068-24.84,48.056-24.84h364.959c18.989,0,36.956,9.286,48.057,24.84L512,299.859
	C495.036,276.096,467.553,261.91,438.479,261.91z"/>
</svg>